<svg width="58" height="41" viewBox="0 0 58 41" fill="none" xmlns="http://www.w3.org/2000/svg">
<path d="M38.29 20.24C38.29 9.06 29.06 0 17.67 0C17.56 0 17.45 0 17.33 0V11.13C17.44 11.13 17.55 11.11 17.67 11.11C22.8 11.11 26.97 15.2 26.97 20.24C26.97 25.28 22.81 29.37 17.67 29.37C17.56 29.37 17.45 29.36 17.33 29.35V40.47C17.44 40.47 17.55 40.47 17.67 40.47C29.06 40.47 38.29 31.41 38.29 20.22" fill="black"/>
<path d="M57.56 20.24C57.56 9.06 48.33 0 36.94 0C36.83 0 36.72 0 36.6 0V11.13C36.71 11.13 36.82 11.11 36.94 11.11C42.07 11.11 46.24 15.2 46.24 20.24C46.24 25.28 42.08 29.37 36.94 29.37C36.83 29.37 36.72 29.36 36.6 29.35V40.47C36.71 40.47 36.82 40.47 36.94 40.47C48.33 40.47 57.56 31.41 57.56 20.22" fill="black"/>
<path d="M9.23 29.5694C14.33 29.5694 18.46 25.4394 18.46 20.3394C18.46 15.2394 14.33 11.1094 9.23 11.1094C4.13 11.1094 0 15.2394 0 20.3394C0 25.4394 4.13 29.5694 9.23 29.5694Z" fill="black"/>
</svg>
